PathFileType	4	(X/Y/Z)
DataRate	CameraRate	NumFrames	NumMarkers	Units	OrigDataRate	OrigDataStartFrame	OrigNumFrames	
	120.0	120.0	7	39	mm	120.0	36	142
Frame#	Time	midhip	hip_r	hip_l	knee_r	knee_l	ankle_r	ankle_l	midasis	asis_r	asis_l	psis_r	psis_l	epicondLat_r	epicondLat_l	epicondMed_r	epicondMed_l	malleolusLat_r	malleolusLat_l	malleolusMedv_r	malleolusMedv_l	heel_r	heel_l	sternalnotch	xyphoidprocess	neck	subclavicle_r	subclavicle_l	toe_r	toe_l	thighwand_r	thighwand_l	upperleg1_r	upperleg1_l	upperleg2_r	upperleg2_l	shankwand_r	shankwand_l	lowerleg1_r	lowerleg1_l
	X1	Y1	Z1	X2	Y2	Z2	X3	Y3	Z3	X4	Y4	Z4	X5	Y5	Z5	X6	Y6	Z6	X7	Y7	Z7	X8	Y8	Z8	X9	Y9	Z9	X10	Y10	Z10	X11	Y11	Z11	X12	Y12	Z12	X13	Y13	Z13	X14	Y14	Z14	X15	Y15	Z15	X16	Y16	Z16	X17	Y17	Z17	X18	Y18	Z18	X19	Y19	Z19	X20	Y20	Z20	X21	Y21	Z21	X22	Y22	Z22	X23	Y23	Z23	X24	Y24	Z24	X25	Y25	Z25	X26	Y26	Z26	X27	Y27	Z27	X28	Y28	Z28	X29	Y29	Z29	X30	Y30	Z30	X31	Y31	Z31	X32	Y32	Z32	X33	Y33	Z33	X34	Y34	Z34	X35	Y35	Z35	X36	Y36	Z36	X37	Y37	Z37	X38	Y38	Z38	X39	Y39	Z39

	36	0.30000	539.129	743.149	-263.811	530.846	744.848	-199.204	547.412	741.451	-328.418	479.726	406.507	-155.700	484.400	424.099	-352.937	511.423	66.840	-119.364	494.464	70.348	-390.812	611.434	809.543	-256.287	598.100	812.278	-152.283	624.768	806.808	-360.291	452.983	855.641	-244.078	456.555	853.623	-299.034	475.710	414.099	-101.375	482.942	428.584	-407.232	485.560	406.748	-207.495	489.509	400.222	-305.554	499.359	69.502	-83.958	484.175	73.842	-426.180	515.231	65.868	-141.963	497.747	66.529	-372.342	477.800	37.466	-143.884	437.213	41.282	-380.897	551.816	1172.476	-273.635	588.702	1093.704	-275.179	459.109	1218.817	-288.146	564.431	1172.407	-234.156	567.199	1177.438	-308.954	607.209	36.587	-85.001	595.887	38.908	-420.587	591.069	528.675	-56.915	658.626	526.622	-356.732	526.237	588.516	-98.239	598.446	597.466	-382.536	515.240	501.365	-106.259	573.641	513.612	-385.442	466.355	185.212	-21.328	490.086	205.585	-487.799	480.637	144.551	-91.750	478.422	158.392	-419.148
	37	0.30833	539.034	743.153	-263.800	530.749	744.857	-199.194	547.320	741.449	-328.406	479.675	406.505	-155.674	484.377	424.116	-352.926	511.434	66.855	-119.350	494.465	70.360	-390.815	611.345	809.540	-256.277	598.007	812.282	-152.271	624.683	806.797	-360.283	452.929	855.645	-244.056	456.472	853.633	-299.007	475.642	414.100	-101.351	482.914	428.602	-407.221	485.560	406.762	-207.497	489.660	400.096	-305.502	499.359	69.513	-83.946	484.172	73.855	-426.182	515.262	65.895	-141.948	497.756	66.536	-372.349	477.798	37.479	-143.879	437.215	41.294	-380.897	551.694	1172.476	-273.663	588.546	1093.688	-275.207	459.041	1218.830	-288.162	564.363	1172.427	-234.199	567.031	1177.409	-309.009	607.205	36.583	-84.997	595.887	38.914	-420.586	591.004	528.685	-56.886	658.535	526.715	-356.878	526.159	588.532	-98.200	598.330	597.441	-382.530	515.194	501.362	-106.240	573.600	513.619	-385.445	466.332	185.210	-21.319	490.074	205.594	-487.798	480.613	144.538	-91.744	478.410	158.425	-419.147
	38	0.31667	538.939	743.162	-263.785	530.650	744.873	-199.180	547.229	741.451	-328.391	479.618	406.508	-155.651	484.350	424.133	-352.916	511.451	66.877	-119.341	494.462	70.369	-390.819	611.255	809.544	-256.264	597.910	812.298	-152.260	624.600	806.790	-360.269	452.875	855.651	-244.037	456.385	853.646	-298.985	475.568	414.107	-101.329	482.885	428.619	-407.211	485.568	406.779	-207.517	489.668	400.040	-305.514	499.365	69.528	-83.941	484.166	73.864	-426.186	515.263	65.909	-141.939	497.749	66.556	-372.347	477.794	37.489	-143.873	437.214	41.303	-380.898	551.533	1172.484	-273.672	588.353	1093.680	-275.176	458.970	1218.835	-288.199	564.236	1172.466	-234.214	566.842	1177.379	-309.040	607.196	36.586	-84.992	595.879	38.929	-420.587	590.932	528.698	-56.856	658.440	526.821	-357.040	526.096	588.551	-98.172	598.229	597.436	-382.506	515.149	501.350	-106.234	573.499	513.659	-385.468	466.300	185.211	-21.312	490.062	205.601	-487.795	480.601	144.536	-91.742	478.401	158.461	-419.152
	39	0.32500	538.848	743.174	-263.766	530.553	744.894	-199.161	547.143	741.454	-328.371	479.555	406.516	-155.630	484.322	424.144	-352.907	511.474	66.898	-119.334	494.457	70.373	-390.822	611.166	809.554	-256.248	597.813	812.323	-152.252	624.518	806.786	-360.243	452.818	855.657	-244.023	456.297	853.663	-298.967	475.488	414.117	-101.310	482.856	428.632	-407.202	485.666	406.804	-207.571	489.669	400.017	-305.488	499.377	69.544	-83.938	484.160	73.868	-426.188	515.239	65.916	-141.937	497.729	66.572	-372.348	477.787	37.494	-143.868	437.212	41.307	-380.901	551.319	1172.505	-273.665	588.093	1093.681	-275.195	458.890	1218.852	-288.229	564.116	1172.511	-234.225	566.545	1177.365	-309.087	607.186	36.592	-84.989	595.868	38.948	-420.589	590.854	528.712	-56.825	658.357	526.918	-357.184	526.019	588.581	-98.137	598.117	597.447	-382.502	515.131	501.342	-106.240	573.390	513.706	-385.485	466.262	185.214	-21.306	490.054	205.603	-487.790	480.592	144.550	-91.725	478.379	158.486	-419.168
	40	0.33333	538.762	743.186	-263.742	530.463	744.916	-199.138	547.062	741.455	-328.345	479.491	406.526	-155.612	484.297	424.145	-352.899	511.502	66.912	-119.329	494.459	70.365	-390.822	611.083	809.563	-256.229	597.724	812.348	-152.247	624.441	806.778	-360.210	452.759	855.662	-244.013	456.209	853.683	-298.953	475.406	414.128	-101.293	482.833	428.636	-407.194	485.799	406.850	-207.646	489.691	400.010	-305.357	499.393	69.552	-83.936	484.162	73.860	-426.188	515.208	65.926	-141.945	497.726	66.573	-372.357	477.783	37.489	-143.865	437.210	41.308	-380.908	551.481	1172.577	-273.767	588.361	1093.799	-275.115	458.819	1218.872	-288.243	564.044	1172.579	-234.234	566.911	1177.473	-309.114	607.179	36.597	-84.986	595.858	38.963	-420.589	590.776	528.726	-56.792	658.320	526.958	-357.226	525.932	588.612	-98.080	598.003	597.452	-382.511	515.126	501.338	-106.245	573.303	513.717	-385.454	466.217	185.219	-21.301	490.055	205.598	-487.784	480.577	144.579	-91.705	478.357	158.494	-419.181
	41	0.34167	538.683	743.193	-263.715	530.380	744.935	-199.112	546.986	741.452	-328.318	479.432	406.532	-155.599	484.279	424.134	-352.892	511.536	66.911	-119.329	494.474	70.342	-390.822	611.009	809.566	-256.209	597.647	812.368	-152.245	624.371	806.764	-360.172	452.696	855.670	-244.008	456.123	853.706	-298.944	475.326	414.134	-101.282	482.816	428.628	-407.187	485.882	406.888	-207.675	489.633	400.027	-305.237	499.413	69.545	-83.940	484.179	73.837	-426.189	515.206	65.928	-141.947	497.735	66.575	-372.357	477.784	37.469	-143.861	437.207	41.307	-380.917	551.324	1172.614	-273.693	588.195	1093.832	-275.062	458.761	1218.883	-288.262	563.951	1172.636	-234.214	566.699	1177.490	-309.032	607.175	36.603	-84.983	595.851	38.967	-420.590	590.698	528.736	-56.761	658.338	526.919	-357.134	525.846	588.636	-98.000	597.918	597.454	-382.502	515.111	501.331	-106.218	573.227	513.689	-385.398	466.169	185.224	-21.299	490.063	205.583	-487.778	480.559	144.613	-91.682	478.356	158.477	-419.173
	42	0.35000	538.610	743.196	-263.690	530.305	744.947	-199.087	546.916	741.446	-328.292	479.379	406.530	-155.591	484.268	424.112	-352.887	511.578	66.894	-119.333	494.503	70.303	-390.824	610.944	809.562	-256.189	597.580	812.378	-152.247	624.307	806.745	-360.131	452.632	855.678	-244.010	456.039	853.729	-298.937	475.249	414.133	-101.276	482.806	428.609	-407.182	485.945	406.927	-207.694	489.506	400.018	-305.216	499.440	69.521	-83.949	484.209	73.798	-426.191	515.238	65.912	-141.936	497.759	66.558	-372.358	477.793	37.433	-143.857	437.204	41.303	-380.928	551.304	1172.619	-273.692	588.176	1093.836	-274.995	458.697	1218.903	-288.271	563.862	1172.641	-234.183	566.740	1177.494	-309.011	607.179	36.605	-84.981	595.851	38.958	-420.591	590.615	528.743	-56.730	658.398	526.819	-356.940	525.751	588.646	-97.909	597.861	597.436	-382.477	515.091	501.333	-106.179	573.170	513.617	-385.351	466.122	185.226	-21.298	490.077	205.559	-487.776	480.547	144.613	-91.668	478.378	158.437	-419.162
